<svg width="24" height="32" fill="none" xmlns="http://www.w3.org/2000/svg"><path fill-rule="evenodd" clip-rule="evenodd" d="M9.335 19.633v8.431s-1.543-1.685-3.921-2.308c-2.378-.624-3.921-.785-3.921-.785l.01-1.992.642.328.19-.404v-1l-.07-1.084-.395-1.05-.354-.39.066-3.652s3.02.46 4.989 1.627c1.967 1.166 2.764 2.279 2.764 2.279zm2.374 2.167s.022-.892.942-1.69c.92-.797 4.52-3.286 7.406-3.935s2.278-.448 2.278-.448v3.682s-1.995 1.04-2.081 2.288c-.086 1.247-.008 1.585.206 2.012.214.427.875.524.875.524v.884s-3.423 1.214-5.125 2.216c-2.402 1.414-3.783 3.221-4.212 3.762-.428.54-.29-9.295-.29-9.295z" fill="#B4E0F1"/><path fill-rule="evenodd" clip-rule="evenodd" d="M22.913 21.745c-.13.285-.375.569-.662.798a2.57 2.57 0 01-.484.301c-.08.036-.177.073-.236.087a.44.44 0 01-.13.024c-.004 0-.012-.002-.02.005.008-.002-.016.013-.045-.045a.64.64 0 01-.068-.214 2.587 2.587 0 01-.016-.581 3.661 3.661 0 01.18-.912c.033-.089.069-.182.116-.287l-.003.008c.18-.38.356-.715.619-.957.064-.062.136-.117.206-.168l.08-.052a1.106 1.106 0 01.354.141c.057.036.103.08.12.11 0 0-.002-.002-.001-.004l.035.07c-.017-.022.009.042.012.063.035.137.048.32.047.505a8.77 8.77 0 01-.104 1.108zm-.354-2.06a.533.533 0 01-.042.027s-.004 0-.006.002l.039-.023.009-.006zm-5.621-2.887c-.221.101-.467.218-.691.338-.907.468-1.79.99-2.624 1.592-.414.304-.82.625-1.202.978-.19.178-.377.36-.554.556l-.111.13a8.913 8.913 0 00-.436-.502 11.604 11.604 0 00-1.156-1.035 15.047 15.047 0 00-1.264-.882 17.805 17.805 0 00-1.333-.763 11.954 11.954 0 00-.69-.342c-.225-.097-.46-.199-.69-.283l1.513-.792a1.263 1.263 0 011.436.185l1.96 1.807c.23.212.526.319.822.319.295 0 .59-.107.82-.319l2.29-2.109a.54.54 0 01.658-.055l1.6 1.03-.348.147zm-5.151 13.99l-.003-.003c.01.008.017.014.003.002zm-9.374-9.861c.046.102.083.193.115.28.035.099.059.198.084.3.049.202.073.41.088.613.012.203.01.405-.02.58a.612.612 0 01-.07.209c-.03.056-.051.037-.04.036-.004-.009-.012-.008-.012-.008a.39.39 0 01-.127-.024 1.812 1.812 0 01-.231-.088 2.527 2.527 0 01-.478-.302c-.28-.23-.524-.509-.65-.788a7.286 7.286 0 01-.063-.526 5.951 5.951 0 01-.04-.571 2.202 2.202 0 01.043-.5c.002-.02.028-.084.009-.058l.033-.068a.407.407 0 01.11-.103.92.92 0 01.197-.098.972.972 0 01.146-.045l.074.047c.07.05.143.104.208.164.263.239.442.572.624.95zm-.968-1.2a.02.02 0 00-.01-.003.36.36 0 01-.043-.029l.009.006.044.026zm4.728-6.748c.118-.615.21-1.32.213-1.952a24.38 24.38 0 00-.03-1.933L6.246 7.2c-.021-.622-.02-1.217.099-1.81a6.62 6.62 0 01.512-1.72 4.768 4.768 0 011.008-1.455c.84-.844 2.02-1.33 3.25-1.482l.455-.046.489-.017.448.015.453.055a4.767 4.767 0 011.696.625c.52.311.984.717 1.377 1.182.397.472.705.981.956 1.553.238.545.392 1.154.512 1.762.095.495.162 1 .21 1.502a27.273 27.273 0 01-2.296-.445 25.55 25.55 0 01-1.298-.356c-.217-.059-.426-.138-.638-.206a9.252 9.252 0 01-.628-.228c-.42-.154-.82-.338-1.217-.528-.2-.093-.384-.21-.576-.313a4.538 4.538 0 01-.547-.349c-.176-.123-.36-.237-.508-.386-.147-.143-.336-.274-.45-.426-.118-.156-.25-.284-.367-.455l-.315-.59-.69.355.327.582c.07.102.153.205.238.307a5.123 5.123 0 01-.828 1.136 4.285 4.285 0 01-.88.7 2.595 2.595 0 01-.33.173l-.127.06.212.512.15-.063a3.14 3.14 0 00.39-.183 4.975 4.975 0 001.047-.757c.342-.318.63-.683.825-.971l.043-.066c.09.075.183.148.272.23.175.166.377.289.574.42.195.134.392.264.602.367.208.108.409.227.622.322.424.193.849.376 1.287.527.216.086.433.149.654.218.22.067.432.132.655.188.444.126.877.211 1.326.313.453.1.846.177 1.269.243-.085 1.08-.71 6.354-4.774 6.354-3.116 0-4.115-4.332-4.4-6.195l-.562.08c.25 1.634 1.027 5.033 3.234 6.233a11.1 11.1 0 01-.37.432l-.14.158c-.165.187-.29.325-.488.49a1.844 1.844 0 00-1.58.06l-1.873.98c.068-.454.173-.96.262-1.433l.355-1.876zm4.367 1.424a3.62 3.62 0 001.195.197c.595 0 1.122-.1 1.592-.272.209.283.572.729 1.064 1.175l-2.043 1.882a.638.638 0 01-.86 0L9.527 15.58c-.008-.008-.018-.013-.026-.02.164-.149.288-.286.427-.442l.138-.154c.203-.225.363-.42.474-.56zm7.549 1.962l-.144.049L16 15.16a1.109 1.109 0 00-1.167-.012 7.65 7.65 0 01-.98-1.056c2.629-1.4 3.13-5.295 3.218-6.32l.199.024-.013.143-.041.447c-.013.165-.041.373-.046.609-.017.892.054 2.027.162 3.174.056.57.117 1.147.215 1.685.095.535.2 1.026.295 1.445l.247 1.065zm4.246 9.866c-1 .106-4.971.704-9.1 3.921l.25.43c4.598-3.583 8.663-3.82 8.705-3.823l.145-.012v-.516zm0-2.623l.29-.223a3.914 3.914 0 001.042-1.2l.102-.18.018-.048c.088-.444.15-.865.138-1.327a2.84 2.84 0 00-.094-.73c-.027-.078-.038-.113-.095-.23l-.04-.069a1.743 1.743 0 00-.097-.128 1.299 1.299 0 00-.374-.284c-.128-.067-.328-.114-.46-.148-.112-.027-.43-.044-.43-.047v-3.266l-.174-.042h.002c-1.025 0-2.024.21-3.02.474-.166.044-.332.04-.497.086-.047-.245-.115-.618-.196-1.037a34.25 34.25 0 01-.237-1.44 20.175 20.175 0 01-.148-1.646c-.066-1.124-.093-2.27-.047-3.087.01-.19.042-.373.063-.553.022-.173.042-.729.058-.853.015-.116.027-.68.035-.68 0 0 .025-.756-.087-1.393a8.32 8.32 0 00-.525-1.795 6.686 6.686 0 00-1.022-1.66A6.1 6.1 0 0015.133.857c-.605-.39-1.703-.768-2.424-.85l-.142-.016-.53-.02-.49.013-.52.043c-1.353.147-2.722.676-3.721 1.65a5.566 5.566 0 00-1.19 1.664 7.407 7.407 0 00-.6 1.911c-.14.651-.152 1.333-.138 1.975l.082 1.904c.029.788.03 1.568-.025 2.347-.032.45-.108.896-.198 1.339l-.38 1.856c-.093.47-.196.908-.278 1.395a24.649 24.649 0 00-2.91-.613l-.334-.049v.322c0 1.086.017 2.17.01 3.257a1.958 1.958 0 00-.233.04c-.133.034-.26.08-.391.147a1.32 1.32 0 00-.38.287 1.433 1.433 0 00-.098.133l-.041.067c-.06.12-.07.155-.098.234-.08.268-.094.505-.102.737a5.75 5.75 0 00.025.674c.028.222.06.43.106.658l.01.052.018.039c.233.516.615.881 1.039 1.16.213.139.439.258.69.347.132.042.248.078.414.101a1.087 1.087 0 00.525-.04.77.77 0 00.419-.42 1.38 1.38 0 00.1-.42 3.146 3.146 0 00-.037-.727c-.034-.231-.096-.452-.15-.675l-.091-.333a5.57 5.57 0 00-.107-.33l-.003-.007c-.14-.389-.312-.832-.637-1.206a2.414 2.414 0 00-.257-.265l-.143-.12-.005-.002c-.008-1.017-.002-2.034 0-3.05.87.159 1.74.36 2.587.614.476.142.947.302 1.403.485.233.09.446.188.669.288.233.115.443.219.657.342.435.237.859.49 1.269.76.428.275.833.58 1.225.895a9.04 9.04 0 011.124 1.071c.12.137.238.277.344.422.12.159.124.084.202.232l.02 5.127-.097 2.611-.101 1.305v.119l.037-.056c-.35-.284-.525-.315-.898-.571l-.521-.396-.661-.435a13.04 13.04 0 00-1.114-.654c-.381-.2-.761-.4-1.155-.576a17.213 17.213 0 00-2.553-.946c-.437-.128-1.175-.23-1.623-.318-.365-.066-1.397-.118-1.397-.15v.265s.854.163 1.505.314c.426.099.888.259 1.308.389.42.122.85.303 1.26.458.472.182.946.406 1.394.623.399.194.787.404 1.168.629.318.187.64.373.943.584l.547.364.526.392c.257.192.509.39.755.596l.515.43.085.07s.055.038.093.056a.609.609 0 00.537-.004.612.612 0 00.312-.327c.022-.062.052-.165.052-.189v-.082l-.023-.326-.007-1.305.01-2.61.02-5.222v-.093l-.038-.065c-.004-.006-.011-.012-.014-.02.08-.112.169-.227.263-.336.15-.178.316-.348.485-.516.342-.334.714-.646 1.097-.945.775-.59 1.61-1.119 2.477-1.596.215-.123.42-.226.655-.342.223-.1.432-.195.665-.284.454-.184 1.135-.334 1.61-.474.847-.25 1.8-.56 2.8-.626v3.366c-.093.084-.38.183-.46.276-.325.371-.784 1.242-.818 1.36l-.176.334c-.051.224-.151.445-.184.676-.033.23-.077.467-.054.725.013.129.024.265.09.415a.749.749 0 00.407.41.992.992 0 00.31.053c.05 0 .323 0 .415-.015.1-.015.47-.035.47-.058v.023z" fill="#000"/><path fill-rule="evenodd" clip-rule="evenodd" d="M22.002 19.629h.434v-3.985l-.434.041v3.944z" fill="#000"/><mask id="a" maskUnits="userSpaceOnUse" x="0" y="-1" width="24" height="33"><path fill-rule="evenodd" clip-rule="evenodd" d="M0 31.466h23.926V-.029H0v31.495z" fill="#fff"/></mask><g mask="url(#a)" fill-rule="evenodd" clip-rule="evenodd" fill="#000"><path d="M1.346 26.434h.585v-3.455h-.585v3.455zm20.404 0h.585v-3.455h-.585v3.455z"/></g></svg>