<svg width="30" height="29" fill="none" xmlns="http://www.w3.org/2000/svg"><path fill-rule="evenodd" clip-rule="evenodd" d="M10.497 17.435c-1.16-1.565-1.38-1.137-1.38-1.137s-4.248 1.433-6.32-1.187S-.38 8.769 1.302 6.465c1.683-2.304 3.7-3.096 5.422-3.247 1.722-.152 6.523.974 9.057 1 5.05.05 8.868-.268 8.868-.268l.941 5.022s-5.588 1.502-7.754 3.182c-2.166 1.68-3.406 3.248-3.075 4.964 0 0-.818 1.7 1.628 5.114 1.731 2.414 1.877 3.875 1.21 4.273-.666.398-1.95.862-3.306-1.237-1.356-2.1-3.796-7.833-3.796-7.833z" fill="#F6CEA9"/><path fill-rule="evenodd" clip-rule="evenodd" d="M27.48.494l.334.76c.208.5.499 1.241.798 2.207.297.967.566 2.167.764 3.562.018.196.058.297.058.577a.783.783 0 01-.412.657c-.436.153-.743.224-1.136.344l-2.361.687a27.415 27.415 0 00-5.112 1.953c-1.765.852-3.5 1.897-5.358 3.025A27.279 27.279 0 018.88 16.83c-.52.148-1.125.342-1.744.376-.614.033-1.243.002-1.84-.164a6.676 6.676 0 01-3.137-1.857c-.853-.859-1.48-2.013-1.825-3.124-.367-1.185-.414-2.41-.226-3.602.22-1.18.699-2.322 1.479-3.23a5.529 5.529 0 011.33-1.172 5 5 0 01.798-.423c.288-.128.49-.18.8-.281 2.06-.605 4.16-1.005 6.143-1.132.993-.076 1.976-.062 2.883-.064a52.059 52.059 0 002.654-.083c1.699-.097 3.249-.278 4.599-.541 1.335-.254 2.508-.635 3.473-.881l2.239-.611c.123-.05.378-.06.504.003a.806.806 0 01.309.207.962.962 0 01.157.234l.004.009zm-.454.219l-.024-.047C26.995.658 26.979.629 26.95.6c-.072-.055-.124-.128-.304-.061l-2.23.647c-.967.263-2.103.656-3.5.948-1.38.292-2.955.5-4.676.626-.861.064-1.758.107-2.688.128-.94.017-1.87.019-2.834.108-1.937.158-3.924.567-5.965 1.201-1.933.512-3.368 2.352-3.673 4.424-.148 1.029-.077 2.127.243 3.114.175.574.359.994.626 1.474.268.457.574.896.945 1.273a5.685 5.685 0 002.645 1.635c.5.151 1.022.181 1.535.165.517-.019 1-.165 1.563-.314a26.401 26.401 0 006.038-2.383c1.822-1.062 3.659-2.125 5.449-2.948a28.03 28.03 0 015.246-1.9l2.373-.645 1.055-.291c.067-.028.129-.124.132-.234.006-.079-.04-.326-.056-.476a23.859 23.859 0 00-.772-3.477 21.125 21.125 0 00-.758-2.165l-.322-.745.004.009z" fill="#000"/><path fill-rule="evenodd" clip-rule="evenodd" d="M23.996.98s.54 1.474.935 2.987a30.62 30.62 0 01.656 3.058l-.48.081s-.285-1.508-.746-2.976a36.74 36.74 0 00-1.017-2.895l.652-.255zM6.229 9.413l5.006-1.117.119.421-4.854 1.66-.271-.964zm-.592-1.846s.297-.118.775-.277c.47-.158 1.104-.34 1.745-.48 1.282-.291 2.581-.39 2.581-.39l.06.434s-1.255.236-2.449.649c-.597.202-1.179.439-1.605.636-.418.193-.706.344-.706.344l-.4-.916zm1.191 3.701l.785-.066a15.82 15.82 0 001.704-.273c1.234-.257 2.41-.75 2.41-.75l.187.395s-1.148.637-2.405 1.047c-.624.21-1.264.378-1.75.482l-.807.157-.124-.992zm-3.26-7.03l-.17.574a6.983 6.983 0 00-.177.657c-.054.254-.136.536-.179.855a11.791 11.791 0 00-.183 2.184c.022.4.024.816.1 1.23.046.42.153.834.25 1.25.132.405.254.816.43 1.199.15.394.364.752.551 1.106.411.69.858 1.296 1.287 1.779.201.252.42.453.6.644.178.192.347.345.488.472l.44.398-.218.254s-.163-.148-.45-.404a7.62 7.62 0 01-.503-.48c-.185-.194-.409-.4-.618-.656a12.163 12.163 0 01-1.336-1.825c-.197-.365-.42-.736-.578-1.143-.185-.397-.315-.822-.454-1.244-.104-.43-.217-.86-.269-1.296-.08-.43-.085-.862-.11-1.277a12.18 12.18 0 01.175-2.259c.042-.329.126-.625.181-.89.055-.267.12-.489.175-.67.107-.367.17-.576.17-.576l.398.118zm13.464 8.552s-.38.414-.934 1.23a8.862 8.862 0 00-.847 1.536c-.24.597-.474 1.42-.05 2.01.508.65 1.185 1.275 1.9 1.952.71.68 1.485 1.385 2.153 2.277.33.435.63.98.77 1.536.148.562.242 1.115.32 1.683.076.565.132 1.135.174 1.708.015.304.053.533.04.9a1.35 1.35 0 01-.544.935 1.509 1.509 0 01-.477.24 1.68 1.68 0 01-.265.056l-.216.022a3.71 3.71 0 01-.939-.05 3.377 3.377 0 01-1.666-.81c-.827-.883-1.467-1.734-2.132-2.606-1.29-1.738-2.369-3.452-3.053-5.095a8.356 8.356 0 01-.383-1.222c-.085-.383-.184-.539-.425-.767-.44-.413-.98-.67-1.412-.86a9.85 9.85 0 00-1.049-.375l-.373-.1.187-.79.42.118c.264.083.652.21 1.131.42.475.217 1.06.486 1.638 1.033.288.232.57.75.624 1.141.085.382.187.742.338 1.13.613 1.535 1.657 3.252 2.905 4.963.622.84 1.32 1.764 2.021 2.532.365.341.841.571 1.346.67.487.081 1.091.108 1.415-.14a.748.748 0 00.31-.497c.012-.203-.02-.544-.032-.808a29.472 29.472 0 00-.154-1.674c-.147-1.113-.302-2.167-.956-2.974-.61-.835-1.367-1.545-2.068-2.228-.703-.682-1.393-1.327-1.934-2.037-.304-.415-.353-.925-.302-1.339.047-.425.18-.794.317-1.128a9.353 9.353 0 01.906-1.61c.58-.835.98-1.263.98-1.263l.316.28z" fill="#000"/></svg>