<svg width="139" height="50" fill="none" xmlns="http://www.w3.org/2000/svg"><path fill-rule="evenodd" clip-rule="evenodd" d="M27.7 16.555c5.16-2.47 9.847-5.45 12.585-10.705C34.89 8 30.935 11.87 27.7 16.555zm9.585 6.885c-.07-.081-.138-.163-.207-.245l-.207-.245c-.61.386-1.24.75-1.87 1.113-1.396.806-2.793 1.612-3.976 2.662-3.173 2.814-6.19 5.83-9.048 8.968-1.055 1.158-2.208 3.034-.707 4.525 1.348 1.338 3.089.323 4.344-.6 2.074-1.527 4.178-3.11 5.892-5.013 2.87-3.185 5.027-6.85 5.779-11.165zM28.97 11.986c.662-.546 1.304-1.087 1.936-1.62 1.47-1.238 2.884-2.43 4.369-3.53 1.264-.936 2.69-1.735 4.16-2.276.782-.287 2.025-.2 2.684.262 1.189.83.5 2.16-.192 2.879-1.761 1.829-3.632 3.552-5.502 5.274l-1.373 1.267c-.31.288-.662.53-1.096.828a33.31 33.31 0 00-.755.528c2.717.657 4.944 1.495 5.71 4.243.048.179 1.135.232 1.666.082a214.78 214.78 0 004.26-1.263c1.544-.47 3.088-.94 4.643-1.372 2.243-.622 3.223.12 3.626 2.335-.433.058-.904.07-1.375.082-1.044.027-2.088.054-2.722.58-1.399 1.163-2.479 2.733-3.544 4.281-.211.308-.422.614-.635.917-.202.286-.163.742-.124 1.199.018.21.036.42.03.614.192-.066.403-.114.615-.162.46-.105.92-.21 1.172-.499 1.094-1.257 2.117-2.576 3.189-3.96.406-.524.819-1.057 1.245-1.599 2.18 1.07 4.195.27 5.755-2.06l.024-.036c.273-.41.654-.98 1.009-.999.533-.029 1.076.11 1.619.25.223.056.447.114.67.16-.07.17-.124.354-.179.538-.119.4-.237.798-.494 1.061l-.535.543c-1.64 1.656-3.293 3.324-4.009 6.051.255-.11.49-.192.704-.266.404-.142.73-.256.957-.472 2.233-2.12 4.423-4.287 6.61-6.455.14-.139.258-.332.372-.52.175-.287.342-.561.566-.607.701-.142 1.631-.197 2.177.16.875.57.388.97-.095 1.368-.12.1-.241.198-.34.3-1.76 1.801-3.18 3.807-3.51 6.49 5.1-2.624 9.318-6.06 11.102-12.024l-16.225-.975-2.716-.164.019-.567c.353 0 .706 0 1.059.002.765 0 1.53.002 2.295-.003 1.456-.009 2.911-.02 4.367-.033 3.731-.031 7.462-.063 11.193-.036 1.248.01 1.737-.659 2.283-1.57 1.897-3.166 3.817-6.32 5.808-9.429 1.366-2.133 1.608-2.121 3.744-.655l-2.84 3.919-.028.038-5.21 7.19c2.645-.164 4.615-.207 5.009 2.678a61.96 61.96 0 01-1.285-.147c-.996-.12-1.968-.238-2.94-.238-.732 0-1.863.191-2.134.679-1.502 2.697-2.904 5.45-4.413 8.41-.485.95-.98 1.923-1.493 2.922.378-.047.667-.065.889-.078.346-.021.53-.033.64-.13.717-.628 1.446-1.245 2.176-1.863 2.022-1.712 4.044-3.426 5.818-5.367 1.4-1.532 2.544-1.89 4.54-.972-2.744 2.327-4.875 4.954-5.744 8.572 3.037-.817 5.742-2.152 8.004-4.45 1.517-1.54 3.093-3.086 4.875-4.28 1.821-1.218 2.656-.755 3.943 1.663-3.973.26-6.32 2.618-8.08 5.703l.233.304.233.304.716-.582.002-.002c.563-.458 1.125-.916 1.696-1.365.239-.188.472-.39.706-.592.603-.521 1.207-1.044 1.906-1.325.506-.203 1.128-.115 1.75-.026.276.039.553.078.82.092-.018.24-.012.493-.007.746.013.548.025 1.097-.198 1.52a248.635 248.635 0 01-5.268 9.452c-2.997 5.132-5.755 10.373-7.61 16.066.008-4.717 1.982-8.832 3.941-12.916l.12-.25c1.37-2.857 2.847-5.663 4.324-8.47a581.602 581.602 0 001.938-3.703l-.201-.171-.407-.346c-.252.177-.507.35-.762.522-.584.395-1.168.79-1.715 1.232a11.4 11.4 0 00-.932.87c-.353.354-.706.707-1.104 1.001-.571.423-1.196.775-1.82 1.127-.27.153-.54.305-.807.464l-.537-1.868-.005-.017-.373-1.296c-.336.208-.678.438-1.03.675-.848.57-1.748 1.174-2.726 1.596-.73.316-1.554.41-2.379.504a19.27 19.27 0 00-1.089.144c-.006-.337-.016-.674-.026-1.011-.025-.842-.05-1.683-.018-2.522a2.95 2.95 0 01.093-.55c.073-.318.156-.674.105-1.136l-.896.805c-.936.84-1.871 1.68-2.81 2.516l-.132.119c-.206.189-.417.381-.66.499-.312.15-.66.358-1.01.567-.853.508-1.726 1.027-2.15.78-1.314-.762-.839-2.122-.406-3.363.059-.167.117-.332.169-.493.063-.195.085-.403.113-.662.014-.135.03-.284.054-.452-.553.428-1.087.852-1.61 1.268-1.246.992-2.432 1.936-3.692 2.767-.564.372-1.267.532-1.969.692a14.11 14.11 0 00-.943.238l-.15-.828a85.925 85.925 0 01-.354-2.034c-.03-.195-.024-.395-.016-.662.004-.145.01-.308.01-.501-.464.383-.906.761-1.338 1.13-1.044.892-2.026 1.73-3.08 2.464-.59.412-1.867.744-2.18.438-.526-.512-.828-1.62-.689-2.378.187-1.02.558-2.006.95-3.049.168-.445.34-.901.503-1.374-1.872-.21-3.195-.046-4.026 2.105-.813 2.107-2.336 3.97-4.644 4.67-.824.25-2.077.107-2.716-.395-.517-.406-.795-1.789-.508-2.441.765-1.743 1.676-3.422 2.632-5.183.367-.678.742-1.367 1.116-2.077-.554.22-1.107.43-1.655.639-1.41.536-2.793 1.061-4.11 1.722-.553.278-.96 1.237-1.08 1.945-1.406 8.176-5.525 14.527-12.625 18.774-1.453.869-3.263 1.383-4.956 1.541-2.619.246-3.994-1.684-3.335-4.231.963-3.73 3.174-6.747 6.027-9.098 2.338-1.926 4.842-3.648 7.347-5.37a216.94 216.94 0 003.627-2.53c.212-.152.48-.26.748-.37.734-.298 1.48-.6 1.135-1.8-.414-1.437-1.413-2.398-2.901-2.345-1.733.062-3.51.243-5.166.728-2.272.665-4.123 1.928-5.4 4.163-2.388 4.172-5.43 7.874-9.118 10.985-.824.694-1.737 1.371-2.725 1.748-.657.25-1.516-.034-2.24-.274l-.016-.005c8.375-5.928 13.637-13.87 16.882-23.25.614-1.776.825-3.813.712-5.699-.204-3.38-2.227-4.904-5.597-4.579-3.72.36-6.78 2.255-9.724 4.373-3.444 2.478-6.326 5.497-8.443 9.201C1.391 18.862.7 22.629 2.191 26.711c-1.68-1.25-2.223-2.435-2.19-4.9.04-3.017.955-5.817 2.491-8.36 3.3-5.465 7.739-9.705 13.764-11.99a17.248 17.248 0 015.37-1.098c4.529-.17 7.616 2.978 7.591 7.512-.005.886-.073 1.772-.146 2.714-.035.45-.07.914-.1 1.397zm86.61 11.843l.13.176.108.147 1.046-.751 3.545-2.543-.251-.34-.001-.002-.124-.17c-2.096.331-3.519 1.575-4.58 3.31l.127.173zm-3.712 2.525c-.49.38-.95.759-1.395 1.125-1.01.832-1.946 1.601-2.987 2.187-.907.51-2.315.819-3.193.47-.394-.156-.52-.977-.645-1.791-.054-.351-.107-.7-.182-.995a3.646 3.646 0 01-.077-.497 6.522 6.522 0 00-.029-.256c-.464.327-.919.66-1.371.99-1.114.816-2.213 1.62-3.388 2.293-.686.392-1.97.594-2.484.217-.519-.379-.805-1.748-.522-2.398 1.157-2.662 2.436-5.295 3.94-7.78.93-1.537 2.054-.776 3.242.028l.288.194c-2.585 2.146-4.084 4.739-5.07 7.734 3.219-1.173 5.77-3.154 7.871-5.733.371-.455.71-.936 1.05-1.416.19-.27.381-.54.577-.806.766-1.037 1.657-1.056 2.57-.227.887.807.331 1.181-.21 1.544-.151.102-.301.203-.417.312-2.061 1.927-3.486 4.188-4.181 7.587 3.539-1.48 6.068-3.34 7.753-6.161 1.31-2.195 2.772-4.182 5.105-5.378 1.849-.947 3.606-.5 4.108 1.34.176.647-.111 1.416-.394 2.173-.126.338-.252.673-.334.994l2.953-.716c2.713-.658 5.55-1.347 8.392-2.017l.336-.08c1.118-.265 2.247-.533 3.383-.604.753-.046 1.534.342 2.254.843-8.036.573-15.573 2.686-22.88 5.69-2.256.928-2.519 3.121-.582 4.614.572.441 1.329.75 2.045.88.811.146 1.683.11 2.509.004 4.313-.554 8.925-3.775 11.258-7.435-.058.25-.101.509-.143.767-.092.555-.184 1.11-.429 1.587-2.345 4.579-9.349 7.79-14.422 6.685-2.726-.595-3.776-1.992-4.299-5.968zm-25.92-14.833c-.314.694-.63 1.389-.949 2.08l.546.368c.478-.516.955-1.032 1.432-1.55 1.18-1.278 2.36-2.556 3.556-3.815.75-.788.532-1.419-.208-1.918-.093-.063-.188-.135-.287-.209-.58-.435-1.24-.93-1.764.104-.82 1.62-1.572 3.28-2.325 4.94z" fill="#000"/></svg>