<svg width="20" height="32" fill="none" xmlns="http://www.w3.org/2000/svg"><path fill-rule="evenodd" clip-rule="evenodd" d="M11.652 13.676s1.321 1.094 1.111 2.553c-.197 1.367-1.9 2.445-3.648 2.8-1.747.353-4.4-.034-4.79-.158-.392-.124-1.009.37-1.059.952-.05.582 3.602 10.42 3.602 10.42s3.402.764 7.31-1.16c4.186-2.06 4.775-4.362 4.775-4.362l-3.746-10.63-1.15-.72-1.347-.263-1.058.568z" fill="#B0A7D2"/><path fill-rule="evenodd" clip-rule="evenodd" d="M5.093 22.033l-.314-.698s3.922-.28 5.748-.931c2.07-.737 4.081-2.53 4.081-2.53s1.703 4.995 1.795 5.345c.091.35-1.715 1.559-2.283 1.906-.569.347-2.817 1.717-4.688 1.808-1.87.092-2.74.101-2.74.101l-1.599-5.001z" fill="#fff"/><mask id="a" maskUnits="userSpaceOnUse" x="0" y="0" width="12" height="19"><path fill-rule="evenodd" clip-rule="evenodd" d="M11.787.03H0v18.277h11.787V.03z" fill="#fff"/></mask><g mask="url(#a)"><path fill-rule="evenodd" clip-rule="evenodd" d="M11.269 15.178L5.547.896l.369.325a5.716 5.716 0 00-.688-.12 6.626 6.626 0 00-.712-.046c-.472-.001-.944.045-1.371.183l-.16.054c-.034.01-.112.045-.165.067-.126.05-.218.098-.324.146a6.788 6.788 0 00-.626.358 6.734 6.734 0 00-.864.668 5.36 5.36 0 00-.25.245l.083-.4 4.518 15.246-.193-.184a12.93 12.93 0 001.742.282c.293.023.586.043.875.037.145.003.287-.012.43-.018.14-.02.285-.027.419-.061.139-.022.265-.066.394-.106.126-.052.28-.111.409-.17.26-.116.523-.253.773-.4a6.02 6.02 0 00.712-.5c.112-.091.47-.394.525-.623l.108.128c.145.17.148.423.009.598-.113.145-.24.266-.31.324a6.527 6.527 0 01-.777.546c-.272.16-.546.304-.838.433-.146.067-.274.115-.427.178-.16.051-.318.104-.477.13-.16.038-.316.047-.474.069-.157.007-.315.023-.47.02a8.95 8.95 0 01-.927-.039 13.407 13.407 0 01-1.82-.293l-.144-.034-.048-.152L.07 2.627 0 2.405l.152-.179v-.002a6.346 6.346 0 01.596-.596c.205-.181.42-.352.643-.512.224-.159.457-.303.699-.438.124-.064.26-.138.37-.187.066-.028.105-.05.19-.085L2.852.33c.543-.2 1.102-.274 1.65-.296a7.495 7.495 0 011.229.06c.139.02.265.038.42.07l.27.063.1.261L11.7 13.837c.12.314.133.522-.065.948-.164.35-.365.393-.365.393z" fill="#181716"/></g><path fill-rule="evenodd" clip-rule="evenodd" d="M7.53 22.455a24.059 24.059 0 001.844-.281c.21-.043.418-.088.612-.138a7.8 7.8 0 001.22-.415c.197-.082.388-.175.577-.27a16.433 16.433 0 002.143-1.33l.072-.054s1.157 3.055 1.257 3.38c.076.25.067.456.067.456.025.03.14.015.31-.146.159-.15.278-.456.193-.71l-1.263-3.786-.178-.53-.45.345c-.15.116-.316.237-.48.35l-.496.338c-.334.22-.675.429-1.021.622-.346.197-.702.367-1.06.525-.178.078-.36.148-.54.212a6.32 6.32 0 01-.55.165c-.2.052-.39.094-.578.134a23.72 23.72 0 01-1.772.28c-.398.049-.8.074-1.2.111-.4.035-.804.06-1.2.075l-.557.02 2.069 5.61h.213c.378 0 .732-.011 1.103-.03a23.54 23.54 0 001.102-.078 17.32 17.32 0 001.104-.136c.369-.057.735-.13 1.103-.223.183-.05.366-.099.548-.164.183-.064.364-.134.532-.214.353-.163.679-.343 1.003-.538.485-.293.862-.516 1.408-.959a.577.577 0 00.119-.785l-.027-.033c-.484.514-1.148.925-1.773 1.285a9.647 9.647 0 01-.952.482 4.97 4.97 0 01-.493.185c-.164.054-.336.095-.507.139-.345.077-.696.14-1.051.185a16.58 16.58 0 01-1.073.106 23.72 23.72 0 01-1.914.056l-1.382-4.082a29 29 0 001.919-.159z" fill="#181716"/><path fill-rule="evenodd" clip-rule="evenodd" d="M3.985 17.187s-.181.014-.446.184a4.48 4.48 0 00-1.044.91 3.113 3.113 0 00-.255.36l-.035.063c-.01.018-.011.024-.018.038a1.335 1.335 0 00-.092.282 1.16 1.16 0 00-.01.433c.019.117.105.373.167.592.274.905.565 1.931.886 3.049l1.046 3.606.584 1.963c.1.332.204.67.308 1.01.105.328.219.699.326.977l.019.052c-.013-.023.036.069-.027-.048l.009.015.018.028.019.028c.005.006-.001-.01-.002-.013a.072.072 0 00-.024-.028s.03.018.043.029l.079.04c.12.054.27.102.427.141.314.08.658.13 1.004.165a15.2 15.2 0 002.14.05c1.444-.068 2.926-.286 4.28-.79.086-.03.167-.067.25-.1l.118-.05.129-.06c.169-.08.35-.156.51-.24.324-.162.649-.338.969-.522a15.22 15.22 0 001.819-1.24c.562-.454 1.113-.953 1.49-1.492.047-.066.079-.131.12-.196.02-.033.025-.06.039-.09.008-.025.034-.065.029-.077a.145.145 0 01.013-.05c0-.011.003.085 0 .035l-.001-.017-.005-.034-.01-.07c-.008-.1-.032-.162-.05-.237a11.701 11.701 0 00-.131-.488c-.047-.173-.101-.346-.153-.519-.421-1.38-.874-2.71-1.301-3.97l-1.218-3.549-.546-1.575-.256-.73c-.088-.245-.147-.46-.247-.614a1.433 1.433 0 00-.368-.41 1.432 1.432 0 00-.223-.135c-.078-.039-.148-.062-.25-.097a4.67 4.67 0 00-1.003-.194 5.797 5.797 0 00-1.84.153l-.131.031-.131-.512.138-.037a6.314 6.314 0 012.002-.23c.349.018.73.072 1.147.196.087.028.212.066.32.118.113.052.222.115.327.189a2.058 2.058 0 01.647.765l.048.104.034.086.133.355.269.727.577 1.566a247.99 247.99 0 011.274 3.535c.44 1.26.907 2.585 1.349 3.983.055.175.112.35.163.53.052.18.106.352.158.578.024.105.054.22.062.306l.01.069.005.034.002.017a.534.534 0 01.003.07c-.01.075-.021.15-.036.226-.013.081-.041.121-.062.184-.024.055-.045.119-.072.166-.055.094-.107.196-.166.281-.473.686-1.047 1.197-1.644 1.694-.601.49-1.24.933-1.907 1.331-.334.197-.674.387-1.027.567-.176.094-.344.166-.517.25l-.128.061-.144.063c-.092.038-.183.08-.277.114-1.484.57-3.027.806-4.546.897a16.11 16.11 0 01-2.273-.029 8.228 8.228 0 01-1.14-.176 3.554 3.554 0 01-.594-.195l-.161-.08c-.061-.04-.108-.067-.18-.123a1.373 1.373 0 01-.172-.181l-.02-.028-.018-.029-.01-.013c-.07-.126-.023-.047-.041-.08l-.031-.075c-.157-.398-.253-.717-.37-1.067-.11-.342-.216-.681-.323-1.016-.206-.67-.41-1.326-.605-1.964-.385-1.279-.75-2.486-1.084-3.602-.333-1.116-.64-2.138-.891-3.05-.061-.236-.133-.414-.188-.733a2.276 2.276 0 01.15-1.216 2.16 2.16 0 01.085-.176l.05-.088.038-.06c.132-.2.249-.344.379-.49.56-.609 1.609-1.266 2.233-.41z" fill="#181716"/></svg>