<svg width="25" height="31" fill="none" xmlns="http://www.w3.org/2000/svg"><path fill-rule="evenodd" clip-rule="evenodd" d="M4.265 2.8L.583 8.512l11.075 6.628L14.4 5.012 9.651 1.398 4.265 2.8z" fill="#F18B98"/><mask id="a" maskUnits="userSpaceOnUse" x="0" y="0" width="25" height="31"><path fill-rule="evenodd" clip-rule="evenodd" d="M24.308 30.907V0H0v30.907h24.308z" fill="#fff"/></mask><g mask="url(#a)"><path fill-rule="evenodd" clip-rule="evenodd" d="M.968 8.41l10.638 6.634 3.28-5.963.036-.088.758-1.353 1.728-3.14L2.996 8.05a.969.969 0 01.636-.564l13.39-3.697-5.094-2.253a.82.82 0 00-.526-.047L4.827 3.085.967 8.41zm2.09 14.71c.499 1.55 1.489 2.791 2.233 3.56a9.993 9.993 0 003.306 2.242c1.507.64 3.139.917 4.72.804a11.424 11.424 0 002.008-.326 10.903 10.903 0 004.399-2.275c2.046-1.763 3.353-4.376 3.496-6.989.118-2.16-.45-4.288-1.596-5.99a10.256 10.256 0 00-2.853-2.852c-.783-.519-2.015-1.196-3.44-1.479-.118-.024-.19-.039-.252-.023-.083.021-.117.083-.161.161l-3.222 5.417c-.226-.112-.99-.549-2.276-1.303l-1.796-1.04-1.095-.644a3.148 3.148 0 01-.264-.14c-.091-.055-.153-.09-.234-.07-.06.015-.105.055-.19.125-.44.373-.811.78-1.15 1.166a8.997 8.997 0 00-1.667 2.885 9.67 9.67 0 00-.572 3.368c.014.813.133 1.673.375 2.704l.194-.046-.073.112-.117-.057.227.69zm12.572 7.425a11.62 11.62 0 01-2.798.362c-4.318.03-8.314-2.349-10.18-6.057a11.006 11.006 0 01-1.021-6.783c.419-2.419 1.72-4.632 3.66-6.23l.112-.093L0 8.622 4.135 2.16c.019-.029.055-.049.122-.066l.149-.033 7.39-2.059c.04-.01.086.017.156.062l6.643 3.716-3.173 5.33.139.028c1.245.244 2.488.73 3.596 1.402 2.199 1.34 3.865 3.4 4.573 5.655.715 2.277.768 4.516.155 6.476-.812 2.597-2.457 4.821-4.634 6.263a11.848 11.848 0 01-3.62 1.61l-.001.001z" fill="#181716"/></g><path fill-rule="evenodd" clip-rule="evenodd" d="M16.714 12.104l.416.219a8.493 8.493 0 012.634 2.311c.5.664.945 1.508 1.246 2.488l.11.393.077.368c.057.242.105.5.127.792.035.283.06.57.052.854.007.286 0 .576-.037.869a8.638 8.638 0 01-1.121 3.502 8.753 8.753 0 01-2.723 2.843c-1.12.747-2.5 1.202-3.837 1.314-2.777.27-5.548-.978-7.188-2.952a8.456 8.456 0 01-1.718-3.237c-.105-.314-.127-.553-.193-.828-.034-.287-.092-.577-.098-.85a8.304 8.304 0 01.038-1.592c.115-1.018.439-1.912.802-2.651a8.66 8.66 0 011.177-1.774c.394-.442.736-.756.98-.956l.379-.301.359.472s-.12.1-.342.29c-.22.194-.526.496-.875.914a7.9 7.9 0 00-1.692 4.097c-.042.46-.065.943-.016 1.44.008.252.064.487.092.738.064.25.107.563.19.775a7.63 7.63 0 001.58 2.889 7.432 7.432 0 002.859 2.035 7.346 7.346 0 003.558.523c1.24-.135 2.406-.498 3.424-1.158a7.801 7.801 0 002.447-2.503 7.736 7.736 0 001.03-3.118 6.715 6.715 0 00.006-1.52c-.027-.448-.162-1.043-.27-1.422a7.877 7.877 0 00-2.38-3.711 8.005 8.005 0 00-1.008-.742l-.401-.232.316-.58z" fill="#181716"/></svg>